<svg width="30" height="30" viewBox="0 0 30 30" fill="none" xmlns="http://www.w3.org/2000/svg">
<path fill-rule="evenodd" clip-rule="evenodd" d="M21.923 7H20V5.666C20 5.299 19.776 5 19.5 5C19.225 5 19 5.299 19 5.666V7H11V5.666C11 5.299 10.775 5 10.5 5C10.224 5 10 5.299 10 5.666V7H8.077C6.93 7 6 7.93 6 9.077V22.924C6 24.07 6.93 25 8.077 25H21.923C23.07 25 24 24.07 24 22.924V9.077C24 7.93 23.07 7 21.923 7V7ZM19 10H20V11H19V10ZM10 10H11V11H10V10ZM23 23.273C23 23.674 22.674 24 22.273 24H7.728C7.327 24 7 23.674 7 23.273V13H23V23.273V23.273ZM12.229 22.699L15 20.686L17.771 22.699L16.712 19.443L19.483 17.43H16.058L15 14.172L13.942 17.43H10.517L13.287 19.443L12.229 22.699" fill="white"/>
</svg>
