<svg width="88" height="88" viewBox="0 0 88 88" fill="none" xmlns="http://www.w3.org/2000/svg">
<path fill-rule="evenodd" clip-rule="evenodd" d="M10 38C10 22.536 22.536 10 38 10C53.464 10 66 22.536 66 38C66 43.1592 64.6046 47.9926 62.1707 52.1432L75.2336 65.6317C77.9553 68.4421 77.8447 72.9379 74.9882 75.6111C72.1999 78.2204 67.8348 78.113 65.1782 75.3698L52.3037 62.0759C48.1174 64.5683 43.2259 66 38 66C22.536 66 10 53.464 10 38ZM22 38C22 29.1634 29.1634 22 38 22C46.8365 22 54 29.1634 54 38C54 46.8365 46.8365 54 38 54C29.1634 54 22 46.8365 22 38Z" fill="#080808"/>
</svg>
