<svg width="30" height="30" viewBox="0 0 30 30" fill="none" xmlns="http://www.w3.org/2000/svg">
<path fill-rule="evenodd" clip-rule="evenodd" d="M18.158 11.413C19.312 10.899 19.934 9.75901 19.553 8.75701C19.391 8.33201 19.071 8.00101 18.666 7.78101V4.03601H17.666V7.49301C17.272 7.46001 16.856 7.49901 16.446 7.64201C15.768 7.87701 15.251 8.32501 14.962 8.84801H14.369C14.08 8.32501 13.563 7.87701 12.886 7.64201C12.475 7.49901 12.06 7.46001 11.666 7.49301V4.03601H10.666V7.78101C10.261 8.00101 9.941 8.33201 9.779 8.75701C9.398 9.75901 10.02 10.899 11.174 11.413C11.206 12.256 11.196 13.574 10.887 14.348C10.108 16.296 8.753 18.89 10.863 26.036H18.469C20.575 18.894 19.221 16.291 18.445 14.348C18.136 13.574 18.126 12.256 18.158 11.413" fill="white"/>
</svg>
