<svg width="30" height="30" viewBox="0 0 30 30" fill="none" xmlns="http://www.w3.org/2000/svg">
<path d="M14.8384 5.91986C16.4302 8.78588 16.5845 13.2405 15.313 16.4423C15.864 15.2709 16.6996 14.1002 17.7515 13.0507C19.184 11.6212 20.8424 10.5853 22.4234 10.1308L22.4292 10.1083L22.4624 10.1415L22.44 10.1474C21.9875 11.7219 20.9501 13.3751 19.5181 14.8046C18.9866 15.3346 18.4237 15.8091 17.8462 16.2216C20.1437 15.5466 22.7986 15.521 24.7906 16.29C23.1716 17.5099 20.7701 18.1977 18.4722 18.2382C18.4927 18.2462 18.5133 18.2527 18.5337 18.2607C19.8124 18.7606 20.9086 19.5084 21.6226 20.3661L21.6382 20.3642L21.6265 20.3945L21.6167 20.3818C20.5148 20.5302 19.2043 20.3368 17.9253 19.8369C16.7274 19.3684 15.693 18.6805 14.98 17.8906V23.4911H14.6832V17.874C13.9697 18.6689 12.9319 19.3596 11.729 19.83C10.4501 20.33 9.13961 20.5234 8.03764 20.3749L8.02788 20.3876L8.01518 20.3574L8.03178 20.3593C8.74521 19.5015 9.84195 18.7538 11.1207 18.2538C11.1412 18.2458 11.1622 18.2394 11.1822 18.2314C8.88417 18.1909 6.48282 17.5022 4.86382 16.2822C6.85532 15.5132 9.51065 15.5398 11.8082 16.2148C11.2302 15.8023 10.6673 15.3278 10.1363 14.7978C8.70379 13.3683 7.66691 11.7151 7.2144 10.1406L7.19194 10.1347L7.22514 10.1005L7.23198 10.124C8.81281 10.5785 10.4705 11.6151 11.9029 13.0439C12.9363 14.0754 13.7601 15.224 14.3111 16.3749C13.0776 13.1875 13.2525 8.77536 14.8384 5.91986ZM14.6832 17.2714V17.2079C14.6577 17.1575 14.631 17.1071 14.606 17.0556C14.634 17.1276 14.6582 17.1995 14.6832 17.2714ZM14.98 17.1826V17.2509C15.0115 17.162 15.0456 17.0732 15.0806 16.9843C15.0487 17.0522 15.0135 17.1162 14.98 17.1826ZM24.7964 16.2919C24.7945 16.291 24.7925 16.2905 24.7906 16.29C24.7921 16.289 24.7945 16.2876 24.7955 16.2861L24.7964 16.2919ZM14.8384 5.91986C14.8374 5.91836 14.8365 5.916 14.8355 5.914H14.8414C14.8404 5.91599 14.8399 5.91836 14.8384 5.91986Z" fill="white"/>
</svg>
