<svg width="30" height="30" viewBox="0 0 30 30" fill="none" xmlns="http://www.w3.org/2000/svg">
<path d="M10.9138 11.8788C11.7008 12.1498 12.3859 12.7291 12.9079 13.4471C13.5288 14.3021 13.9138 15.3571 13.9138 16.37V25.036H5.91376V16.37C5.91376 14.507 7.18976 12.4718 8.91376 11.8788V11.036H10.9138V11.8788ZM16.9138 11.8788C17.4718 12.0708 17.9748 12.4241 18.4108 12.8641C19.2418 13.7011 19.7944 14.8771 19.8864 16.036C19.8944 16.148 19.9138 16.259 19.9138 16.37V25.036H14.9138V22.036H16.9138V16.37C16.9138 16.259 16.9292 16.148 16.9382 16.036H14.8884C14.8104 14.8301 14.3305 13.6354 13.5856 12.6835C13.9806 12.3245 14.4288 12.0448 14.9138 11.8788V11.036H16.9138V11.8788ZM21.9138 11.8788C23.6378 12.4718 24.9138 14.507 24.9138 16.37V25.036H20.9138V22.036H22.9138V16.036H20.8884C20.7974 14.6272 20.152 13.2354 19.1862 12.2284C19.4182 12.0834 19.6608 11.9658 19.9138 11.8788V11.036H21.9138V11.8788ZM7.91376 16.036V22.036H11.9138V16.036H7.91376ZM10.9138 10.036H8.91376V7.03601H10.9138V10.036ZM16.9138 10.036H14.9138V7.03601H16.9138V10.036ZM21.9138 10.036H19.9138V7.03601H21.9138V10.036ZM10.9138 6.03601H8.91376V5.03601H10.9138V6.03601ZM16.9138 6.03601H14.9138V5.03601H16.9138V6.03601ZM21.9138 6.03601H19.9138V5.03601H21.9138V6.03601Z" fill="white"/>
</svg>
