<svg width="30" height="30" viewBox="0 0 30 30" fill="none" xmlns="http://www.w3.org/2000/svg">
<path d="M24.8545 21.075V22.075H21.8545V25.075H19.8545V22.075H9.85449V25.075H7.85449V22.075H4.85449V21.075H24.8545ZM24.1475 18.7498C24.2735 19.0958 24.095 19.4783 23.748 19.6033L21.8691 20.2879C21.5234 20.4136 21.1408 20.2361 21.0156 19.8894L20.5361 18.573L23.6689 17.4334L24.1475 18.7498ZM10.8545 19.075C10.8545 19.628 10.4075 20.075 9.85449 20.075H6.85449C6.30149 20.075 5.85449 19.628 5.85449 19.075V18.075H10.8545V19.075ZM14.8545 19.075C14.8545 19.628 14.4075 20.075 13.8545 20.075H12.8545C12.3015 20.075 11.8545 19.628 11.8545 19.075V18.075H14.8545V19.075ZM23.4404 16.8064L20.3086 17.9471L18.249 12.2898L21.3818 11.1512L23.4404 16.8064ZM10.8545 17.075H5.85449V12.075H10.8545V17.075ZM14.8545 16.075H11.8545V10.075H14.8545V16.075ZM21.1533 10.5242L18.0215 11.6639L17.5654 10.4109L20.6973 9.27127L21.1533 10.5242ZM10.8545 11.075H5.85449V10.075H10.8545V11.075ZM18.5049 5.1951C18.8507 5.06937 19.2333 5.24693 19.3594 5.59354L20.4697 8.64432L17.3369 9.78397L16.2266 6.73417C16.1006 6.38727 16.2792 6.00579 16.624 5.87967L18.5049 5.1951ZM9.85449 7.07499C10.4075 7.07499 10.8545 7.52199 10.8545 8.07499V9.07499H5.85449V8.07499C5.85449 7.52199 6.30149 7.07499 6.85449 7.07499H9.85449ZM13.8545 6.07499C14.4075 6.07499 14.8545 6.52199 14.8545 7.07499V8.07499H11.8545V7.07499C11.8545 6.52199 12.3015 6.07499 12.8545 6.07499H13.8545Z" fill="white"/>
</svg>
